<?xml version="1.0" encoding="UTF-8" standalone="no"?>
<svg
   xmlns:dc="http://purl.org/dc/elements/1.1/"
   xmlns:cc="http://creativecommons.org/ns#"
   xmlns:rdf="http://www.w3.org/1999/02/22-rdf-syntax-ns#"
   xmlns:svg="http://www.w3.org/2000/svg"
   xmlns="http://www.w3.org/2000/svg"
   xmlns:xlink="http://www.w3.org/1999/xlink"
   xmlns:sodipodi="http://sodipodi.sourceforge.net/DTD/sodipodi-0.dtd"
   xmlns:inkscape="http://www.inkscape.org/namespaces/inkscape"
   enable-background="new 0 0 96 96"
   height="96px"
   id="navigation"
   version="1.1"
   viewBox="0 0 96 96"
   width="96px"
   xml:space="preserve"
   inkscape:version="0.48.4 r9939"
   sodipodi:docname="nav_open.svg"><metadata
     id="metadata3047"><rdf:RDF><cc:Work
         rdf:about=""><dc:format>image/svg+xml</dc:format><dc:type
           rdf:resource="http://purl.org/dc/dcmitype/StillImage" /><dc:title /></cc:Work></rdf:RDF></metadata><defs
     id="defs3045" /><sodipodi:namedview
     pagecolor="#ffffff"
     bordercolor="#666666"
     borderopacity="1"
     objecttolerance="10"
     gridtolerance="10"
     guidetolerance="10"
     inkscape:pageopacity="0"
     inkscape:pageshadow="2"
     inkscape:window-width="1204"
     inkscape:window-height="929"
     id="namedview3043"
     showgrid="false"
     inkscape:zoom="3.7822559"
     inkscape:cx="-10.46831"
     inkscape:cy="47.435081"
     inkscape:window-x="365"
     inkscape:window-y="64"
     inkscape:window-maximized="0"
     inkscape:current-layer="navigation" /><path
     style="fill:#406abf;fill-opacity:0.94117647;stroke:none"
     d="m 84.703955,84.342462 h -72 c -2.209,0 -3.9999999,-2.487499 -3.9999999,-5.555555 0,-3.068056 1.7909999,-5.555556 3.9999999,-5.555556 h 72 c 2.209,0 4,2.4875 4,5.555556 0,3.068056 -1.791,5.555555 -4,5.555555 z"
     id="path3984"
     inkscape:connector-curvature="0" /><path
     style="fill:#406abf;fill-opacity:0.94117647;stroke:none"
     d="M 84.703959,62.357904 H 12.703951 c -2.209,0 -3.9999998,-2.487499 -3.9999998,-5.555555 0,-3.068056 1.7909998,-5.555555 3.9999998,-5.555555 h 72.000008 c 2.209,0 4,2.487499 4,5.555555 0,3.068056 -1.791,5.555555 -4,5.555555 z"
     id="path3980"
     inkscape:connector-curvature="0" /><path
     style="fill:#406abf;fill-opacity:0.94117647;stroke:none"
     d="m 84.703954,18.388791 h -72 c -2.208999,0 -3.9999985,-2.487499 -3.9999985,-5.555555 0,-3.0680566 1.7909995,-5.5555556 3.9999985,-5.5555556 h 72 c 2.209,0 4,2.487499 4,5.5555556 0,3.068056 -1.791,5.555555 -4,5.555555 z"
     id="path3041"
     inkscape:connector-curvature="0" /><use
     x="0"
     y="0"
     xlink:href="#path3980"
     id="use3988"
     transform="translate(0,-21.984559)"
     width="96"
     height="96" /></svg>