<?xml version="1.0" encoding="UTF-8" standalone="no"?>
<svg
   xmlns:dc="http://purl.org/dc/elements/1.1/"
   xmlns:cc="http://creativecommons.org/ns#"
   xmlns:rdf="http://www.w3.org/1999/02/22-rdf-syntax-ns#"
   xmlns:svg="http://www.w3.org/2000/svg"
   xmlns="http://www.w3.org/2000/svg"
   xmlns:sodipodi="http://sodipodi.sourceforge.net/DTD/sodipodi-0.dtd"
   xmlns:inkscape="http://www.inkscape.org/namespaces/inkscape"
   enable-background="new 0 0 96 96"
   height="96px"
   id="navigation"
   version="1.1"
   viewBox="0 0 96 96"
   width="96px"
   xml:space="preserve"
   inkscape:version="0.48.4 r9939"
   sodipodi:docname="nav_close.svg"><metadata
     id="metadata3047"><rdf:RDF><cc:Work
         rdf:about=""><dc:format>image/svg+xml</dc:format><dc:type
           rdf:resource="http://purl.org/dc/dcmitype/StillImage" /><dc:title></dc:title></cc:Work></rdf:RDF></metadata><defs
     id="defs3045" /><sodipodi:namedview
     pagecolor="#ffffff"
     bordercolor="#666666"
     borderopacity="1"
     objecttolerance="10"
     gridtolerance="10"
     guidetolerance="10"
     inkscape:pageopacity="0"
     inkscape:pageshadow="2"
     inkscape:window-width="1204"
     inkscape:window-height="929"
     id="namedview3043"
     showgrid="false"
     inkscape:zoom="5.6875"
     inkscape:cx="48"
     inkscape:cy="48"
     inkscape:window-x="365"
     inkscape:window-y="64"
     inkscape:window-maximized="0"
     inkscape:current-layer="navigation" /><path
     style="fill:#406abf;fill-opacity:1;stroke:none"
     d="M 5.1320472,11.541133 83.330201,92.251248 c 2.399162,2.476232 6.582933,2.739377 9.343986,0.587705 2.761054,-2.151671 3.054467,-5.903856 0.655304,-8.380087 L 15.131338,3.7487504 C 12.732174,1.2725191 8.5484042,1.0093755 5.7873512,3.1610463 3.0262972,5.3127186 2.7328842,9.0649011 5.1320472,11.541133 z"
     id="path3907"
     inkscape:connector-curvature="0" /><path
     style="fill:#406abf;fill-opacity:1;stroke:none"
     d="M 93.505315,11.541132 15.307161,92.251248 C 12.907999,94.72748 8.7242283,94.990625 5.9631747,92.838953 3.2021207,90.687282 2.9087086,86.935097 5.3078713,84.458866 L 83.506024,3.7487498 c 2.399164,-2.4762313 6.582934,-2.7393749 9.343987,-0.5877041 2.761054,2.1516723 3.054467,5.9038552 0.655304,8.3800863 z"
     id="path3041-0"
     inkscape:connector-curvature="0" /></svg>